<svg xmlns="http://www.w3.org/2000/svg" viewBox="0 0 24 24" class="design-iconfont"><path d="M1.200 12.000 L 1.200 22.800 12.000 22.800 L 22.800 22.800 22.800 12.000 L 22.800 1.200 12.000 1.200 L 1.200 1.200 1.200 12.000 M21.200 12.000 L 21.200 21.200 12.000 21.200 L 2.800 21.200 2.800 12.000 L 2.800 2.800 12.000 2.800 L 21.200 2.800 21.200 12.000 M13.620 10.640 C 11.860 12.400,10.402 13.840,10.380 13.840 C 10.358 13.840,9.800 13.300,9.140 12.640 L 7.939 11.440 7.380 12.000 L 6.821 12.560 8.600 14.340 L 10.380 16.120 14.160 12.340 L 17.940 8.560 17.380 8.000 L 16.820 7.440 13.620 10.640 " stroke="none" fill-rule="evenodd" fill="black"></path></svg>