<svg xmlns="http://www.w3.org/2000/svg" width="24" height="24" viewBox="0 0 24 24"><path d="M11.069 1.039 C 8.847 1.255,6.838 2.058,5.120 3.417 C 4.733 3.723,3.723 4.733,3.417 5.120 C 2.158 6.712,1.400 8.494,1.094 10.580 C 0.987 11.312,0.997 12.789,1.115 13.560 C 1.423 15.575,2.171 17.297,3.434 18.900 C 3.718 19.261,4.739 20.282,5.100 20.566 C 6.701 21.827,8.426 22.576,10.440 22.885 C 11.274 23.013,12.726 23.013,13.560 22.885 C 16.034 22.506,18.163 21.421,19.861 19.674 C 21.264 18.231,22.174 16.606,22.660 14.680 C 22.903 13.718,22.973 13.113,22.973 12.000 C 22.973 11.190,22.958 10.920,22.885 10.440 C 22.567 8.358,21.770 6.567,20.451 4.971 C 20.081 4.523,19.321 3.771,18.900 3.436 C 17.332 2.188,15.554 1.414,13.580 1.121 C 12.946 1.026,11.639 0.984,11.069 1.039 M13.400 2.700 C 17.165 3.283,20.193 6.035,21.118 9.715 C 21.325 10.536,21.378 11.006,21.378 12.000 C 21.378 12.994,21.325 13.464,21.118 14.285 C 20.272 17.650,17.650 20.272,14.285 21.118 C 13.464 21.325,12.994 21.378,12.000 21.378 C 11.006 21.378,10.536 21.325,9.715 21.118 C 6.348 20.272,3.720 17.642,2.879 14.280 C 2.675 13.463,2.622 12.991,2.622 12.000 C 2.622 11.009,2.675 10.537,2.879 9.720 C 3.720 6.358,6.358 3.720,9.720 2.879 C 10.125 2.778,10.725 2.676,11.220 2.625 C 11.569 2.588,12.997 2.638,13.400 2.700 M11.200 9.600 L 11.200 11.200 9.600 11.200 L 8.000 11.200 8.000 12.000 L 8.000 12.800 9.600 12.800 L 11.200 12.800 11.200 14.400 L 11.200 16.000 12.000 16.000 L 12.800 16.000 12.800 14.400 L 12.800 12.800 14.400 12.800 L 16.000 12.800 16.000 12.000 L 16.000 11.200 14.400 11.200 L 12.800 11.200 12.800 9.600 L 12.800 8.000 12.000 8.000 L 11.200 8.000 11.200 9.600 " stroke="none" fill="black" fill-rule="evenodd"></path></svg>