<svg xmlns="http://www.w3.org/2000/svg" viewBox="0 0 24 24" class="design-iconfont"><path d="M3.560 9.620 L 3.560 13.920 10.860 13.920 L 18.160 13.920 18.160 11.920 L 18.160 9.920 18.500 9.920 L 18.840 9.920 18.840 13.156 L 18.840 16.392 18.650 16.417 C 18.546 16.431,16.327 16.648,13.720 16.899 C 11.113 17.151,8.886 17.368,8.770 17.381 L 8.560 17.406 8.560 20.263 L 8.560 23.120 9.360 23.120 L 10.160 23.120 10.160 20.980 C 10.160 19.803,10.169 18.840,10.180 18.840 C 10.239 18.840,20.128 17.878,20.270 17.859 L 20.440 17.835 20.440 13.078 L 20.440 8.320 19.300 8.320 L 18.160 8.320 18.160 6.820 L 18.160 5.320 10.860 5.320 L 3.560 5.320 3.560 9.620 M16.560 9.620 L 16.560 12.320 10.860 12.320 L 5.160 12.320 5.160 9.620 L 5.160 6.920 10.860 6.920 L 16.560 6.920 16.560 9.620 " stroke="none" fill-rule="evenodd" fill="black"></path></svg>