<svg xmlns="http://www.w3.org/2000/svg" viewBox="0 0 24 24" class="design-iconfont"><path d="M5.051 7.065 L 1.524 12.529 3.151 13.580 C 4.045 14.158,4.783 14.649,4.791 14.672 C 4.798 14.694,4.226 15.591,3.518 16.663 C 2.811 17.736,2.224 18.634,2.215 18.660 C 2.205 18.685,2.344 18.979,2.523 19.313 L 2.848 19.920 5.338 19.920 L 7.828 19.920 8.164 19.735 L 8.500 19.549 9.060 18.677 C 9.368 18.197,9.634 17.803,9.651 17.802 C 9.668 17.801,10.033 18.028,10.463 18.306 C 11.125 18.734,11.254 18.803,11.298 18.756 C 11.327 18.725,11.680 18.187,12.082 17.560 C 12.484 16.933,14.054 14.496,15.570 12.145 C 17.086 9.794,18.311 7.857,18.293 7.840 C 18.228 7.782,8.630 1.600,8.604 1.600 C 8.589 1.600,6.990 4.059,5.051 7.065 M11.700 7.432 C 13.592 8.652,15.160 9.670,15.185 9.695 C 15.219 9.728,14.722 10.527,13.253 12.800 C 12.166 14.483,11.169 16.027,11.038 16.231 C 10.815 16.578,10.793 16.599,10.712 16.556 C 10.483 16.433,3.816 12.113,3.785 12.068 C 3.740 12.000,8.152 5.151,8.216 5.189 C 8.240 5.203,9.808 6.213,11.700 7.432 M7.020 9.065 C 6.514 9.826,6.067 10.500,6.028 10.562 L 5.955 10.675 6.621 11.121 C 6.988 11.366,7.292 11.560,7.298 11.553 C 7.316 11.532,9.222 8.665,9.254 8.612 C 9.273 8.579,9.062 8.415,8.622 8.122 C 8.259 7.879,7.957 7.680,7.951 7.681 C 7.945 7.682,7.526 8.305,7.020 9.065 M7.251 16.226 C 7.784 16.571,8.236 16.867,8.255 16.884 C 8.275 16.901,8.086 17.231,7.835 17.617 L 7.380 18.319 5.865 18.319 L 4.351 18.320 4.410 18.230 C 5.798 16.113,6.178 15.558,6.227 15.577 C 6.258 15.589,6.718 15.881,7.251 16.226 " stroke="none" fill="black" fill-rule="evenodd"></path></svg>