<svg xmlns="http://www.w3.org/2000/svg" viewBox="0 0 24 24" class="design-iconfont"><path d="M4.300 4.638 C 3.896 4.739,3.553 5.025,3.375 5.411 L 3.260 5.660 3.260 12.000 L 3.260 18.340 3.376 18.592 C 3.538 18.942,3.838 19.211,4.186 19.319 C 4.446 19.399,4.533 19.400,11.997 19.400 C 18.769 19.400,19.567 19.393,19.759 19.337 C 20.138 19.224,20.414 18.994,20.610 18.629 L 20.700 18.460 20.700 12.000 L 20.700 5.540 20.582 5.326 C 20.408 5.014,20.127 4.778,19.812 4.680 C 19.555 4.601,19.457 4.600,11.986 4.604 C 7.825 4.606,4.366 4.622,4.300 4.638 M19.400 12.000 L 19.400 18.040 12.000 18.040 L 4.600 18.040 4.600 12.000 L 4.600 5.960 12.000 5.960 L 19.400 5.960 19.400 12.000 M7.577 8.377 C 7.394 8.456,7.166 8.672,7.074 8.851 C 6.692 9.601,7.360 10.467,8.180 10.284 C 8.755 10.155,9.086 9.571,8.913 8.992 C 8.851 8.787,8.585 8.488,8.382 8.395 C 8.188 8.307,7.759 8.298,7.577 8.377 M14.931 11.769 L 13.161 13.538 12.011 12.394 C 11.378 11.765,10.816 11.228,10.762 11.200 C 10.606 11.118,10.269 11.135,10.114 11.232 C 10.040 11.279,9.147 12.150,8.130 13.169 L 6.280 15.021 6.760 15.500 L 7.240 15.979 8.850 14.370 L 10.460 12.760 11.580 13.884 C 12.301 14.608,12.757 15.035,12.860 15.083 C 13.052 15.173,13.237 15.180,13.411 15.104 C 13.484 15.072,14.428 14.158,15.600 12.984 L 17.659 10.921 17.200 10.460 C 16.948 10.207,16.732 10.000,16.721 10.000 C 16.709 10.000,15.904 10.796,14.931 11.769 " stroke="none" fill-rule="evenodd" fill="black"></path></svg>