<svg xmlns="http://www.w3.org/2000/svg" viewBox="0 0 24 24" class="design-iconfont"><path d="M2.507 3.347 C 2.492 3.361,2.480 3.721,2.480 4.147 L 2.480 4.920 12.001 4.920 L 21.522 4.920 21.511 4.130 L 21.500 3.340 12.017 3.330 C 6.801 3.324,2.521 3.332,2.507 3.347 M2.480 11.380 C 2.480 13.019,2.489 14.360,2.500 14.360 C 2.523 14.360,6.346 11.502,6.435 11.419 C 6.480 11.376,6.150 11.113,4.511 9.884 C 3.423 9.068,2.521 8.400,2.507 8.400 C 2.492 8.400,2.480 9.741,2.480 11.380 M8.489 9.390 L 8.500 10.180 15.000 10.180 L 21.500 10.180 21.511 9.390 L 21.522 8.600 15.000 8.600 L 8.478 8.600 8.489 9.390 M8.489 14.630 L 8.500 15.420 15.000 15.420 L 21.500 15.420 21.511 14.630 L 21.522 13.840 15.000 13.840 L 8.478 13.840 8.489 14.630 M2.480 19.880 L 2.480 20.680 12.000 20.680 L 21.520 20.680 21.520 19.880 L 21.520 19.080 12.000 19.080 L 2.480 19.080 2.480 19.880 " fill="#1f1f1f" stroke="none" fill-rule="evenodd"></path></svg>