<svg xmlns="http://www.w3.org/2000/svg" viewBox="0 0 24 24" class="design-iconfont"><path d="M9.520 4.500 L 9.520 5.280 11.020 5.280 C 11.845 5.280,12.520 5.294,12.520 5.310 C 12.520 5.342,9.898 18.474,9.860 18.630 L 9.838 18.720 8.679 18.720 L 7.520 18.720 7.520 19.500 L 7.520 20.280 11.000 20.280 L 14.480 20.280 14.480 19.500 L 14.480 18.720 12.980 18.720 C 12.155 18.720,11.480 18.706,11.480 18.690 C 11.480 18.658,14.102 5.526,14.140 5.370 L 14.162 5.280 15.321 5.280 L 16.480 5.280 16.480 4.500 L 16.480 3.720 13.000 3.720 L 9.520 3.720 9.520 4.500 " stroke="none" fill-rule="evenodd" fill="black"></path></svg>