<svg xmlns="http://www.w3.org/2000/svg" viewBox="0 0 24 24" class="design-iconfont"><path d="M3.508 4.492 L 2.035 6.460 3.118 6.471 L 4.200 6.481 4.200 12.001 L 4.200 17.520 3.120 17.520 C 2.526 17.520,2.040 17.529,2.040 17.540 C 2.040 17.584,4.967 21.460,5.000 21.460 C 5.033 21.460,7.960 17.584,7.960 17.540 C 7.960 17.529,7.474 17.520,6.880 17.520 L 5.800 17.520 5.800 12.001 L 5.800 6.481 6.882 6.471 L 7.965 6.460 6.492 4.492 C 5.683 3.409,5.011 2.523,5.000 2.523 C 4.989 2.523,4.317 3.409,3.508 4.492 M10.000 4.520 L 10.000 5.320 16.000 5.320 L 22.000 5.320 22.000 4.520 L 22.000 3.720 16.000 3.720 L 10.000 3.720 10.000 4.520 M10.000 9.520 L 10.000 10.320 16.000 10.320 L 22.000 10.320 22.000 9.520 L 22.000 8.720 16.000 8.720 L 10.000 8.720 10.000 9.520 M10.000 14.520 L 10.000 15.320 16.000 15.320 L 22.000 15.320 22.000 14.520 L 22.000 13.720 16.000 13.720 L 10.000 13.720 10.000 14.520 M10.000 19.520 L 10.000 20.320 16.000 20.320 L 22.000 20.320 22.000 19.520 L 22.000 18.720 16.000 18.720 L 10.000 18.720 10.000 19.520 " fill="#1f1f1f" stroke="none" fill-rule="evenodd"></path></svg>