<svg xmlns="http://www.w3.org/2000/svg" viewBox="0 0 24 24" class="design-iconfont"><path d="M15.091 4.123 C 14.196 4.239,13.427 4.612,12.672 5.294 C 11.971 5.929,10.835 7.153,10.842 7.267 C 10.844 7.296,11.772 8.052,11.898 8.128 C 11.927 8.145,12.034 8.041,12.173 7.864 C 12.543 7.392,13.899 6.084,14.200 5.909 C 14.552 5.705,15.017 5.564,15.436 5.534 C 16.761 5.440,18.077 6.423,18.380 7.734 C 18.455 8.056,18.463 8.650,18.397 8.955 C 18.327 9.282,18.141 9.700,17.944 9.974 C 17.847 10.109,17.149 10.834,16.394 11.585 L 15.020 12.949 14.640 13.134 C 13.749 13.567,12.791 13.533,11.954 13.038 C 11.808 12.952,11.496 12.698,11.261 12.474 L 10.834 12.066 10.327 12.576 L 9.820 13.085 10.242 13.493 C 11.132 14.351,11.880 14.721,12.980 14.850 C 13.993 14.968,14.926 14.727,15.829 14.115 C 16.262 13.822,18.859 11.225,19.155 10.789 C 20.163 9.305,20.165 7.454,19.158 5.955 C 18.946 5.638,18.379 5.070,18.060 4.854 C 17.172 4.251,16.110 3.990,15.091 4.123 M9.866 9.181 C 9.212 9.305,8.594 9.573,8.060 9.966 C 7.631 10.281,5.102 12.835,4.846 13.211 C 4.564 13.625,4.337 14.118,4.211 14.592 C 4.123 14.927,4.108 15.065,4.106 15.600 C 4.104 16.293,4.151 16.567,4.373 17.158 C 4.752 18.167,5.686 19.140,6.685 19.565 C 7.258 19.809,7.673 19.891,8.340 19.892 C 9.001 19.893,9.282 19.846,9.841 19.642 C 10.212 19.507,10.625 19.275,10.960 19.017 C 11.337 18.724,13.160 16.846,13.160 16.749 C 13.160 16.738,12.985 16.588,12.770 16.417 C 12.556 16.245,12.306 16.046,12.216 15.973 L 12.052 15.841 11.791 16.170 C 11.458 16.590,10.209 17.815,9.920 18.006 C 9.417 18.337,8.780 18.508,8.196 18.466 C 6.399 18.339,5.128 16.540,5.644 14.855 C 5.845 14.199,5.884 14.149,7.497 12.535 L 8.980 11.049 9.360 10.864 C 10.184 10.462,10.998 10.462,11.832 10.864 C 12.155 11.020,12.266 11.103,12.664 11.489 L 13.124 11.935 13.622 11.438 C 13.896 11.165,14.120 10.932,14.120 10.920 C 14.120 10.866,13.389 10.153,13.140 9.965 C 12.754 9.673,12.139 9.378,11.660 9.256 C 11.151 9.125,10.342 9.091,9.866 9.181 " stroke="none" fill-rule="evenodd" fill="black"></path></svg>