<svg xmlns="http://www.w3.org/2000/svg" viewBox="0 0 24 24" class="design-iconfont"><path d="M3.576 2.179 C 2.422 2.431,1.734 3.657,2.119 4.777 C 2.390 5.565,3.167 6.120,4.000 6.120 C 4.833 6.120,5.610 5.565,5.881 4.777 C 6.270 3.648,5.576 2.426,4.405 2.178 C 4.083 2.109,3.896 2.110,3.576 2.179 M8.000 4.120 L 8.000 4.920 15.000 4.920 L 22.000 4.920 22.000 4.120 L 22.000 3.320 15.000 3.320 L 8.000 3.320 8.000 4.120 M3.476 10.138 C 2.956 10.281,2.455 10.696,2.217 11.180 C 1.673 12.286,2.260 13.631,3.437 13.976 C 3.562 14.013,3.801 14.040,4.000 14.040 C 4.199 14.040,4.438 14.013,4.563 13.976 C 5.276 13.767,5.830 13.143,5.963 12.398 C 6.140 11.408,5.489 10.398,4.505 10.136 C 4.253 10.068,3.724 10.070,3.476 10.138 M8.000 12.060 L 8.000 12.840 15.000 12.840 L 22.000 12.840 22.000 12.060 L 22.000 11.280 15.000 11.280 L 8.000 11.280 8.000 12.060 M3.534 17.937 C 2.885 18.094,2.336 18.593,2.119 19.223 C 1.713 20.401,2.478 21.654,3.720 21.845 C 5.170 22.068,6.363 20.622,5.881 19.223 C 5.551 18.265,4.517 17.698,3.534 17.937 M8.000 19.880 L 8.000 20.680 15.000 20.680 L 22.000 20.680 22.000 19.880 L 22.000 19.080 15.000 19.080 L 8.000 19.080 8.000 19.880 " stroke="none" fill="black" fill-rule="evenodd"></path></svg>