<svg xmlns="http://www.w3.org/2000/svg" viewBox="0 0 24 24" class="design-iconfont"><path d="M2.507 3.347 C 2.492 3.361,2.480 3.721,2.480 4.147 L 2.480 4.920 12.001 4.920 L 21.522 4.920 21.511 4.130 L 21.500 3.340 12.017 3.330 C 6.801 3.324,2.521 3.332,2.507 3.347 M2.489 9.390 L 2.500 10.180 9.000 10.180 L 15.500 10.180 15.511 9.390 L 15.522 8.600 9.000 8.600 L 2.478 8.600 2.489 9.390 M19.485 10.885 C 17.850 12.113,17.520 12.376,17.565 12.419 C 17.654 12.502,21.477 15.360,21.500 15.360 C 21.511 15.360,21.520 14.019,21.520 12.380 C 21.520 10.741,21.507 9.400,21.490 9.401 C 21.473 9.401,20.571 10.069,19.485 10.885 M2.489 14.630 L 2.500 15.420 9.000 15.420 L 15.500 15.420 15.511 14.630 L 15.522 13.840 9.000 13.840 L 2.478 13.840 2.489 14.630 M2.480 19.880 L 2.480 20.680 12.000 20.680 L 21.520 20.680 21.520 19.880 L 21.520 19.080 12.000 19.080 L 2.480 19.080 2.480 19.880 " fill="#1f1f1f" stroke="none" fill-rule="evenodd"></path></svg>