<svg xmlns="http://www.w3.org/2000/svg" viewBox="0 0 24 24" class="design-iconfont"><path d="M16.200 5.218 L 16.200 6.556 12.970 6.570 C 10.098 6.582,9.701 6.591,9.390 6.653 C 8.336 6.863,7.409 7.263,6.550 7.879 C 6.412 7.978,6.065 8.293,5.777 8.579 C 4.802 9.550,4.218 10.634,3.914 12.040 C 3.834 12.407,3.823 12.574,3.823 13.360 C 3.823 14.368,3.871 14.691,4.145 15.514 C 4.843 17.612,6.592 19.285,8.713 19.882 C 9.630 20.140,9.535 20.135,13.230 20.150 L 16.600 20.164 16.600 19.364 L 16.600 18.564 13.250 18.549 C 9.563 18.533,9.753 18.545,8.940 18.275 C 8.193 18.026,7.592 17.660,6.998 17.091 C 6.231 16.357,5.722 15.444,5.497 14.400 C 5.409 13.990,5.378 13.093,5.437 12.675 C 5.556 11.835,5.933 10.896,6.407 10.260 C 6.668 9.909,7.135 9.444,7.500 9.169 C 7.852 8.904,8.725 8.468,9.120 8.360 C 9.814 8.169,9.992 8.160,13.190 8.160 L 16.200 8.160 16.200 9.980 C 16.200 10.981,16.214 11.800,16.230 11.800 C 16.247 11.800,17.151 10.909,18.240 9.820 L 20.220 7.840 18.240 5.860 C 17.151 4.771,16.247 3.880,16.230 3.880 C 16.214 3.880,16.200 4.482,16.200 5.218 " fill="#1f1f1f" stroke="none" fill-rule="evenodd"></path></svg>