<svg xmlns="http://www.w3.org/2000/svg" viewBox="0 0 24 24" class="design-iconfont"><path d="M7.277 10.479 C 3.968 13.976,1.260 16.853,1.260 16.872 C 1.260 16.892,2.465 18.047,3.937 19.440 L 6.614 21.973 8.557 21.946 C 9.626 21.932,12.773 21.920,15.550 21.920 L 20.600 21.920 20.600 21.120 L 20.600 20.320 16.555 20.310 L 12.511 20.300 16.745 15.862 C 19.074 13.421,20.980 11.404,20.980 11.379 C 20.980 11.330,13.377 4.120,13.325 4.120 C 13.309 4.120,10.587 6.982,7.277 10.479 M16.050 8.866 C 17.507 10.244,18.715 11.385,18.733 11.401 C 18.751 11.417,17.808 12.433,16.637 13.659 L 14.509 15.888 11.914 13.294 C 10.487 11.868,9.320 10.688,9.320 10.673 C 9.320 10.647,13.363 6.360,13.387 6.360 C 13.394 6.360,14.592 7.488,16.050 8.866 M10.817 14.437 L 13.413 17.033 12.976 17.494 C 12.736 17.748,12.036 18.486,11.420 19.134 L 10.300 20.313 8.740 20.314 L 7.180 20.316 5.359 18.588 C 4.357 17.638,3.529 16.846,3.519 16.829 C 3.502 16.800,8.153 11.846,8.200 11.842 C 8.211 11.841,9.389 13.008,10.817 14.437 " stroke="none" fill-rule="evenodd" fill="black"></path></svg>