<svg xmlns="http://www.w3.org/2000/svg" viewBox="0 0 24 24" class="design-iconfont"><path d="M10.920 2.804 C 9.845 2.926,8.852 3.301,7.981 3.913 C 7.804 4.037,7.479 4.319,7.257 4.539 C 6.185 5.607,5.564 6.971,5.493 8.416 L 5.467 8.933 5.900 8.906 C 6.138 8.892,6.489 8.880,6.680 8.880 L 7.028 8.880 7.073 8.450 C 7.185 7.359,7.605 6.457,8.354 5.695 C 9.290 4.743,10.659 4.248,11.958 4.393 C 12.978 4.506,13.846 4.904,14.565 5.588 C 14.970 5.974,15.265 6.367,15.495 6.827 C 15.673 7.183,15.880 7.774,15.880 7.926 C 15.880 7.991,15.899 8.004,15.970 7.988 C 16.020 7.977,16.376 7.909,16.763 7.838 L 17.466 7.708 17.412 7.464 C 17.075 5.969,16.127 4.614,14.820 3.761 C 13.668 3.010,12.228 2.656,10.920 2.804 M3.120 12.040 L 3.120 12.840 8.678 12.840 L 14.236 12.840 14.382 13.030 C 14.462 13.135,14.616 13.400,14.724 13.621 C 15.290 14.777,15.301 16.212,14.753 17.240 C 14.126 18.417,12.931 19.294,11.615 19.543 C 10.998 19.659,10.036 19.555,9.301 19.291 C 7.884 18.782,6.661 17.644,6.119 16.329 C 6.049 16.159,5.979 16.006,5.963 15.989 C 5.940 15.965,4.550 16.412,4.485 16.465 C 4.453 16.490,4.693 17.074,4.882 17.435 C 5.539 18.686,6.469 19.624,7.760 20.339 C 9.169 21.119,10.911 21.381,12.296 21.020 C 13.758 20.638,15.008 19.752,15.847 18.502 C 16.287 17.847,16.504 17.322,16.668 16.520 C 16.773 16.006,16.762 14.914,16.646 14.370 C 16.546 13.900,16.355 13.307,16.215 13.030 L 16.119 12.840 18.499 12.840 L 20.880 12.840 20.880 12.040 L 20.880 11.240 12.000 11.240 L 3.120 11.240 3.120 12.040 " stroke="none" fill-rule="evenodd" fill="black"></path></svg>