<svg xmlns="http://www.w3.org/2000/svg" viewBox="0 0 24 24" class="design-iconfont"><path d="M3.728 5.081 C 3.651 5.128,3.563 5.233,3.519 5.331 C 3.444 5.495,3.442 5.677,3.441 12.002 L 3.440 18.503 3.530 18.682 C 3.596 18.812,3.668 18.884,3.798 18.950 L 3.977 19.040 12.000 19.040 L 20.023 19.040 20.202 18.950 C 20.332 18.884,20.404 18.812,20.470 18.682 L 20.560 18.503 20.559 12.002 C 20.558 5.677,20.556 5.495,20.481 5.331 C 20.437 5.233,20.349 5.128,20.272 5.081 C 20.141 5.001,20.092 5.000,12.000 5.000 C 3.908 5.000,3.859 5.001,3.728 5.081 M19.320 7.280 L 19.320 8.360 12.000 8.360 L 4.680 8.360 4.680 7.280 L 4.680 6.200 12.000 6.200 L 19.320 6.200 19.320 7.280 M8.640 11.080 L 8.640 12.600 6.660 12.600 L 4.680 12.600 4.680 11.080 L 4.680 9.560 6.660 9.560 L 8.640 9.560 8.640 11.080 M13.840 11.080 L 13.840 12.600 11.860 12.600 L 9.880 12.600 9.880 11.080 L 9.880 9.560 11.860 9.560 L 13.840 9.560 13.840 11.080 M19.320 11.080 L 19.320 12.600 17.180 12.600 L 15.040 12.600 15.040 11.080 L 15.040 9.560 17.180 9.560 L 19.320 9.560 19.320 11.080 M8.640 15.820 L 8.640 17.800 6.660 17.800 L 4.680 17.800 4.680 15.820 L 4.680 13.840 6.660 13.840 L 8.640 13.840 8.640 15.820 M13.840 15.820 L 13.840 17.800 11.860 17.800 L 9.880 17.800 9.880 15.820 L 9.880 13.840 11.860 13.840 L 13.840 13.840 13.840 15.820 M19.320 15.820 L 19.320 17.800 17.180 17.800 L 15.040 17.800 15.040 15.820 L 15.040 13.840 17.180 13.840 L 19.320 13.840 19.320 15.820 " fill="#1f1f1f" stroke="none" fill-rule="evenodd"></path></svg>