<svg xmlns="http://www.w3.org/2000/svg" viewBox="0 0 24 24" class="design-iconfont"><path d="M5.970 8.730 L 5.983 13.700 6.074 14.100 C 6.410 15.576,7.138 16.766,8.260 17.676 C 9.451 18.641,11.053 19.146,12.477 19.007 C 13.954 18.862,15.279 18.217,16.323 17.135 C 17.136 16.292,17.647 15.324,17.926 14.100 L 18.017 13.700 18.030 8.730 L 18.042 3.760 17.242 3.760 L 16.442 3.760 16.430 8.710 L 16.418 13.660 16.307 14.040 C 16.021 15.024,15.489 15.831,14.719 16.453 C 14.294 16.796,13.572 17.159,13.020 17.307 C 12.667 17.402,12.547 17.415,12.000 17.415 C 11.453 17.415,11.333 17.402,10.980 17.307 C 10.428 17.159,9.706 16.796,9.281 16.453 C 8.511 15.831,7.979 15.024,7.693 14.040 L 7.582 13.660 7.570 8.710 L 7.558 3.760 6.758 3.760 L 5.958 3.760 5.970 8.730 M5.520 20.240 L 5.520 21.040 12.000 21.040 L 18.480 21.040 18.480 20.240 L 18.480 19.440 12.000 19.440 L 5.520 19.440 5.520 20.240 " stroke="none" fill-rule="evenodd" fill="black"></path></svg>