<svg xmlns="http://www.w3.org/2000/svg" viewBox="0 0 24 24" class="design-iconfont"><path d="M5.760 5.860 L 3.780 7.840 5.760 9.820 C 6.849 10.909,7.753 11.800,7.770 11.800 C 7.786 11.800,7.800 10.981,7.800 9.980 L 7.800 8.160 10.810 8.160 C 14.009 8.160,14.189 8.169,14.880 8.360 C 15.302 8.476,16.081 8.867,16.482 9.162 C 17.619 10.002,18.362 11.255,18.563 12.675 C 18.622 13.093,18.591 13.990,18.503 14.400 C 18.278 15.446,17.770 16.356,16.999 17.094 C 16.408 17.660,15.805 18.027,15.060 18.275 C 14.247 18.545,14.437 18.533,10.750 18.549 L 7.400 18.564 7.400 19.364 L 7.400 20.164 10.790 20.148 C 13.623 20.135,14.233 20.122,14.502 20.071 C 16.021 19.780,17.207 19.162,18.240 18.121 C 19.229 17.123,19.846 15.926,20.127 14.460 C 20.161 14.278,20.179 13.880,20.178 13.320 C 20.176 12.583,20.163 12.400,20.086 12.040 C 19.784 10.639,19.198 9.550,18.223 8.579 C 17.935 8.293,17.588 7.978,17.450 7.879 C 16.591 7.263,15.664 6.863,14.610 6.653 C 14.299 6.591,13.902 6.582,11.030 6.570 L 7.800 6.556 7.800 5.218 C 7.800 4.482,7.786 3.880,7.770 3.880 C 7.753 3.880,6.849 4.771,5.760 5.860 " fill="#1f1f1f" stroke="none" fill-rule="evenodd"></path></svg>