<svg xmlns="http://www.w3.org/2000/svg" viewBox="0 0 24 24" class="design-iconfont">
  <g data-name="图片 (2)" fill="#1f1f1f">
    <path data-name="路径 139" d="M84.409,136.533h-14.8a1.345,1.345,0,0,0-1.345,1.345v12.107a1.345,1.345,0,0,0,1.345,1.345h14.8a1.345,1.345,0,0,0,1.345-1.345V137.878a1.345,1.345,0,0,0-1.345-1.345Zm-14.8,1.345h14.8v12.107h-14.8Z" transform="translate(-65.01 -131.932)"/>
    <path data-name="路径 140" d="M258.018,325.276a1.009,1.009,0,1,1-1.009-1.009,1.009,1.009,0,0,1,1.009,1.009" transform="translate(-249.044 -315.967)"/>
    <path data-name="路径 141" d="M232.292,409.6l.951.951-4.036,4.036a.673.673,0,0,1-.951,0l-2.215-2.215-3.224,3.223-.951-.951,3.7-3.7a.673.673,0,0,1,.951,0l2.215,2.215Z" transform="translate(-215.584 -399.618)"/>
  </g>
</svg>
