<svg xmlns="http://www.w3.org/2000/svg" viewBox="0 0 24 24" class="design-iconfont">
  <g data-name="链接 (1)" fill="#1f1f1f">
    <path data-name="路径 142" d="M419.541,170.736a4.222,4.222,0,0,1-2.987-1.245l-.554-.554,1.019-1.019.554.554a2.8,2.8,0,0,0,3.826.13l.032-.029a1.108,1.108,0,0,0,.09-.086l2.278-2.278a2.793,2.793,0,0,0,0-3.959l-.043-.043a2.793,2.793,0,0,0-3.959,0l-1.162,1.163a1.105,1.105,0,0,0-.086.09l-.45.561-1.123-.9.464-.565a2.436,2.436,0,0,1,.194-.209l1.162-1.162a4.233,4.233,0,0,1,6,0l.043.043a4.233,4.233,0,0,1,0,6l-2.278,2.278a2.527,2.527,0,0,1-.191.176,4.279,4.279,0,0,1-2.818,1.08Z" transform="translate(-406.165 -155.856)"/>
    <path data-name="路径 143" d="M164.386,394.329a4.215,4.215,0,0,1-3-1.245l-.043-.043a4.232,4.232,0,0,1,0-6l2.278-2.278a2.521,2.521,0,0,1,.191-.176,4.236,4.236,0,0,1,5.805.176l.554.569-1.019,1.019-.554-.554a2.8,2.8,0,0,0-3.826-.13l-.032.029a1.105,1.105,0,0,0-.09.086l-2.278,2.278a2.793,2.793,0,0,0,0,3.959l.043.043a2.793,2.793,0,0,0,3.959,0l1.163-1.163a1.113,1.113,0,0,0,.086-.09l.45-.561,1.126.9-.468.565a2.434,2.434,0,0,1-.194.209l-1.162,1.162A4.215,4.215,0,0,1,164.386,394.329Z" transform="translate(-156.019 -374.41)"/>
  </g>
</svg>
