<svg xmlns="http://www.w3.org/2000/svg" viewBox="0 0 24 24" class="design-iconfont">
  <path data-name="表单组件-表格 (1)" d="M80.943,168.234v-4.246c0-.006,0-.01,0-.015s0-.01,0-.015v-3.348a.611.611,0,0,0-.611-.611H64.454a.611.611,0,0,0-.611.611v3.348c0,.005,0,.01,0,.015s0,.009,0,.015v4.246c0,.006,0,.01,0,.015s0,.009,0,.015v5.173a.611.611,0,0,0,.611.611H80.333a.611.611,0,0,0,.611-.611v-5.173c0-.005,0-.01,0-.015S80.943,168.239,80.943,168.234Zm-10.688-.6v-3.054h3.97v3.054Zm3.97,1.221v3.966h-3.97v-3.966Zm-9.161-4.275h3.97v3.054h-3.97Zm10.382,0h4.275v3.054H75.447Zm4.275-3.363v2.141H65.064v-2.141Zm-14.657,7.638h3.97v3.966h-3.97Zm10.382,3.966v-3.966h4.275v3.966Z" transform="translate(-60.393 -155.023)" fill="#1f1f1f"/>
</svg>
